<?xml version="1.0"?>
<svg xmlns="http://www.w3.org/2000/svg" xmlns:xlink="http://www.w3.org/1999/xlink" xmlns:svgjs="http://svgjs.com/svgjs" version="1.1" width="512" height="512" x="0" y="0" viewBox="0 0 512 512" style="enable-background:new 0 0 512 512" xml:space="preserve" class=""><g><g xmlns="http://www.w3.org/2000/svg"><path d="m443.106 150.394c.017-.017-134.983-135.017-134.983-135.017-9.524-9.489-22.649-15.377-37.123-15.377h-180c-4.142 0-7.5 3.358-7.5 7.5v22.5h-22.5c-4.142 0-7.5 3.358-7.5 7.5v151c0 4.142 3.358 7.5 7.5 7.5s7.5-3.358 7.5-7.5v-143.5h15v429.5c0 4.142 3.358 7.5 7.5 7.5h322.5v15h-345v-278.5c0-4.142-3.358-7.5-7.5-7.5s-7.5 3.358-7.5 7.5v286c0 4.142 3.358 7.5 7.5 7.5h360c4.143 0 7.5-3.358 7.5-7.5v-22.5h22.5c4.143 0 7.5-3.358 7.5-7.5v-287c0-14.474-5.888-27.599-15.394-37.106zm-36.56-15.38c-.183-.002-.363-.014-.546-.014h-82.5v-82.5c0-.183-.012-.363-.014-.546zm-308.046-120.014h150v452h-150zm345 452h-180v-452h7.5c20.678 0 37.5 16.822 37.5 37.5v90c0 4.142 3.357 7.5 7.5 7.5h90c20.678 0 37.5 16.822 37.5 37.5z" fill="#ffffff" data-original="#000000" style="" class=""/><path d="m173.5 150c33.084 0 60-26.916 60-60s-26.916-60-60-60-60 26.916-60 60 26.916 60 60 60zm0-105c24.813 0 45 20.187 45 45s-20.187 45-45 45-45-20.187-45-45 20.187-45 45-45z" fill="#ffffff" data-original="#000000" style="" class=""/><path d="m226 166h-105c-4.142 0-7.5 3.358-7.5 7.5s3.358 7.5 7.5 7.5h105c4.142 0 7.5-3.358 7.5-7.5s-3.358-7.5-7.5-7.5z" fill="#ffffff" data-original="#000000" style="" class=""/><path d="m226 196h-105c-4.142 0-7.5 3.358-7.5 7.5s3.358 7.5 7.5 7.5h105c4.142 0 7.5-3.358 7.5-7.5s-3.358-7.5-7.5-7.5z" fill="#ffffff" data-original="#000000" style="" class=""/><path d="m226 226h-105c-4.142 0-7.5 3.358-7.5 7.5s3.358 7.5 7.5 7.5h105c4.142 0 7.5-3.358 7.5-7.5s-3.358-7.5-7.5-7.5z" fill="#ffffff" data-original="#000000" style="" class=""/><path d="m421 196h-135c-4.143 0-7.5 3.358-7.5 7.5v30c0 4.142 3.357 7.5 7.5 7.5h135c4.143 0 7.5-3.358 7.5-7.5v-30c0-4.142-3.357-7.5-7.5-7.5zm-7.5 30h-120v-15h120z" fill="#ffffff" data-original="#000000" style="" class=""/><path d="m421 256h-135c-4.143 0-7.5 3.358-7.5 7.5s3.357 7.5 7.5 7.5h135c4.143 0 7.5-3.358 7.5-7.5s-3.357-7.5-7.5-7.5z" fill="#ffffff" data-original="#000000" style="" class=""/><path d="m421 286h-135c-4.143 0-7.5 3.358-7.5 7.5s3.357 7.5 7.5 7.5h135c4.143 0 7.5-3.358 7.5-7.5s-3.357-7.5-7.5-7.5z" fill="#ffffff" data-original="#000000" style="" class=""/><path d="m421 316h-135c-4.143 0-7.5 3.358-7.5 7.5v30c0 4.142 3.357 7.5 7.5 7.5h135c4.143 0 7.5-3.358 7.5-7.5v-30c0-4.142-3.357-7.5-7.5-7.5zm-7.5 30h-120v-15h120z" fill="#ffffff" data-original="#000000" style="" class=""/><path d="m421 376h-135c-4.143 0-7.5 3.358-7.5 7.5s3.357 7.5 7.5 7.5h135c4.143 0 7.5-3.358 7.5-7.5s-3.357-7.5-7.5-7.5z" fill="#ffffff" data-original="#000000" style="" class=""/><path d="m421 406h-135c-4.143 0-7.5 3.358-7.5 7.5s3.357 7.5 7.5 7.5h135c4.143 0 7.5-3.358 7.5-7.5s-3.357-7.5-7.5-7.5z" fill="#ffffff" data-original="#000000" style="" class=""/></g></g></svg>
