<?xml version="1.0" encoding="UTF-8"?>
<svg width="191px" height="127px" viewBox="0 0 191 127" version="1.1" xmlns="http://www.w3.org/2000/svg" xmlns:xlink="http://www.w3.org/1999/xlink">
    <!-- Generator: Sketch 63.1 (92452) - https://sketch.com -->
    <title>incluzio</title>
    <desc>Created with Sketch.</desc>
    <g id="incluzio" stroke="none" stroke-width="1" fill="none" fill-rule="evenodd">
        <g fill-rule="nonzero">
            <path d="M130.671597,40.6835429 C160.498099,35.4221143 189.445856,47.1061143 188.821293,73.1302286 C188.421863,99.0092 162.342738,125.8316 137.047947,126.600857 C111.891141,127.326571 74.9838403,97.6376 73.0956274,96.0773143 C63.9668441,88.5371429 61.0038023,79.0085143 68.2661597,73.0721714 C67.7142205,73.6237143 100.053498,46.7577714 130.671597,40.6835429 Z" id="Path" fill="#FFFFFF"></path>
            <path d="M58.3603042,44.6532 C63.9087452,16.002 82.5657414,-6.66931429 103.067376,1.79251429 C123.547224,10.0221143 136.416122,41.7866286 128.812433,64.9296571 C121.201483,87.9565714 84.4176426,113.153371 83.7204563,113.632343 C74.8022814,119.742857 66.239962,119.416286 63.8506464,111.034286 C64.1120913,111.76 53.2330798,74.2478286 58.3603042,44.6532 Z" id="Path" fill="#FFFFFF"></path>
            <path d="M53.1531939,27.6642286 C24.0238783,25.6394857 -2.71612167,37.8968 0.22513308,59.8714286 C2.9339924,81.7517143 30.3639163,102.332971 54.6928137,100.9396 C78.920038,99.4881714 106.451635,76.5846286 113.358137,69.8572571 C121.157909,62.2880571 123.460076,54.4285714 115.950798,49.9944571 C116.560837,50.4226286 83.0958935,30.2985714 53.1531939,27.6642286 Z" id="Path" fill="#FFFFFF"></path>
            <path d="M130.671597,40.6835429 C160.498099,35.4221143 189.445856,47.1061143 188.821293,73.1302286 C188.421863,99.0092 162.342738,125.8316 137.047947,126.600857 C111.891141,127.326571 74.9838403,97.6376 73.0956274,96.0773143 C63.9668441,88.5371429 61.0038023,79.0085143 68.2661597,73.0721714 C67.7142205,73.6237143 100.053498,46.7577714 130.671597,40.6835429 Z" id="Path" fill="#FF7800"></path>
            <path d="M58.3603042,44.6532 C63.9087452,16.002 82.5657414,-6.66931429 103.067376,1.79251429 C123.547224,10.0221143 136.416122,41.7866286 128.812433,64.9296571 C121.201483,87.9565714 84.4176426,113.153371 83.7204563,113.632343 C74.8022814,119.742857 66.239962,119.416286 63.8506464,111.034286 C64.1120913,111.76 53.2330798,74.2478286 58.3603042,44.6532 Z" id="Path" fill="#FF7800"></path>
            <path d="M53.1531939,27.6642286 C24.0238783,25.6394857 -2.71612167,37.8968 0.22513308,59.8714286 C2.9339924,81.7517143 30.3639163,102.332971 54.6928137,100.9396 C78.920038,99.4881714 106.451635,76.5846286 113.358137,69.8572571 C121.157909,62.2880571 123.460076,54.4285714 115.950798,49.9944571 C116.560837,50.4226286 83.0958935,30.2985714 53.1531939,27.6642286 Z" id="Path" fill="#FF7800"></path>
            <g id="Group" transform="translate(7.988593, 55.880000)" fill="#FFFFFF">
                <rect id="Rectangle" x="0.915057034" y="1.50222857" width="6.23836502" height="25.1242286"></rect>
                <path d="M7.15342205,27.3086286 L0.915057034,27.3086286 C0.538033445,27.3086286 0.232395437,27.00321 0.232395437,26.6264571 L0.232395437,1.50222857 C0.232395437,1.12547569 0.538033445,0.820057143 0.915057034,0.820057143 L7.15342205,0.820057143 C7.53044564,0.820057143 7.83608365,1.12547569 7.83608365,1.50222857 L7.83608365,26.6264571 C7.83608365,26.8073803 7.76416058,26.9808932 7.6361367,27.1088252 C7.50811281,27.2367571 7.33447517,27.3086286 7.15342205,27.3086286 L7.15342205,27.3086286 Z M1.59771863,25.9442857 L6.47076046,25.9442857 L6.47076046,2.17714286 L1.59771863,2.17714286 L1.59771863,25.9442857 Z" id="Shape"></path>
                <path d="M30.7851331,26.6264571 L23.2395437,14.3546286 C22.3550754,12.8768171 21.5643434,11.3449649 20.8720152,9.76811429 L20.8211787,9.76811429 C20.9155894,10.9728 20.9664259,12.2282857 20.9664259,14.2094857 L20.9664259,26.6264571 L14.974981,26.6264571 L14.974981,1.50222857 L23.3412167,1.50222857 L30.6035741,13.4837714 C31.5906678,15.0120402 32.4644856,16.6104637 33.2180228,18.2662286 L33.261597,18.2662286 C33.1671863,16.7712571 33.1163498,14.6957143 33.1163498,12.0831429 L33.0727757,1.50222857 L39.115057,1.50222857 L39.115057,26.6264571 L30.7851331,26.6264571 Z" id="Path"></path>
                <path d="M39.1513688,27.3086286 L30.7851331,27.3086286 C30.5478325,27.3080771 30.3278434,27.1844221 30.2041445,26.9820571 L22.6658175,14.7102286 C22.309962,14.1441714 21.9395817,13.5273143 21.6490875,12.9249714 C21.6490875,13.3241143 21.6490875,13.7450286 21.6490875,14.2094857 L21.6490875,26.6264571 C21.6490875,27.00321 21.3434494,27.3086286 20.9664259,27.3086286 L14.974981,27.3086286 C14.5979574,27.3086286 14.2923194,27.00321 14.2923194,26.6264571 L14.2923194,1.50222857 C14.2923194,1.12547569 14.5979574,0.820052504 14.974981,0.820052504 L23.3412167,0.820052504 C23.5788917,0.81917835 23.7995351,0.943201152 23.9222053,1.14662857 L31.2281369,13.1281714 C31.6711407,13.8538857 32.0923574,14.5288 32.4990494,15.2617714 C32.4990494,14.3110857 32.4990494,13.2515429 32.4990494,12.0831429 L32.4554753,1.50948571 C32.4579266,1.32865681 32.5278541,1.15525777 32.6515589,1.02325714 C32.7825425,0.896991598 32.9561944,0.824472798 33.1381369,0.820052504 L39.1804183,0.820052504 C39.5574418,0.820052504 39.8630801,1.12547569 39.8630801,1.50222857 L39.8630801,26.6264571 C39.8630801,26.8125239 39.7873516,26.9905854 39.6529741,27.1193856 C39.5185966,27.2481858 39.3374007,27.3165464 39.1513688,27.3086286 L39.1513688,27.3086286 Z M31.1627757,25.9442857 L38.4904943,25.9442857 L38.4904943,2.17714286 L33.791749,2.17714286 L33.8353232,12.0758857 C33.8353232,14.6666857 33.8861597,16.7349714 33.9805703,18.2154286 C33.99542,18.4050741 33.9294918,18.592176 33.7990114,18.7306857 C33.6673425,18.8612969 33.4906431,18.9365999 33.3051711,18.9411429 L33.2543346,18.9411429 C32.9856887,18.94249 32.7412294,18.786262 32.6297719,18.542 C31.8903608,16.9167986 31.0335601,15.3475294 30.0661597,13.8466286 L22.9563118,2.17714286 L15.6939544,2.17714286 L15.6939544,25.9370286 L20.3273384,25.9370286 L20.3273384,14.2094857 C20.3273384,12.3661714 20.2837643,11.0961714 20.1820913,9.8552 C20.1813983,9.47080565 20.4807747,9.15254879 20.8647529,9.12948571 L20.9155894,9.12948571 C21.1838662,9.13041727 21.4261569,9.28992952 21.5328897,9.53588571 C22.2170907,11.0842979 22.9956226,12.5893482 23.8641065,14.0425714 L31.1627757,25.9442857 Z" id="Shape"></path>
                <path d="M57.3290494,27.0110857 C48.9628137,27.0110857 44.7579087,22.1778286 44.7579087,14.6739429 C44.7579087,7.5692 49.0136502,1.14662268 58.5563878,1.14662268 C60.2845137,1.14534149 62.0063309,1.35493066 63.6836122,1.77074286 L63.1825095,7.20634286 C61.5916022,6.66701073 59.9240496,6.38765118 58.2441065,6.37902857 C53.9447909,6.37902857 51.4755894,9.47782857 51.4755894,14.0643429 C51.4755894,18.9411429 54.1844487,21.4593714 58.5346008,21.4593714 C60.202753,21.4881043 61.8559425,21.1408365 63.3713308,20.4433714 L63.9014829,25.9515429 C61.7807415,26.6506918 59.5622195,27.00834 57.3290494,27.0110857 L57.3290494,27.0110857 Z" id="Path"></path>
                <path d="M57.3290494,27.6932572 C48.9047148,27.6932572 44.0752471,22.9398286 44.0752471,14.6304 C44.0752471,5.9944 49.7689354,0.420898094 58.599962,0.420898094 C60.3873642,0.418727182 62.1681352,0.638116656 63.9014829,1.07405714 C64.2273387,1.1556768 64.4418781,1.4663803 64.4025856,1.79977143 L63.8579087,7.25714286 C63.8374836,7.463213 63.7244935,7.64885639 63.5507774,7.76176134 C63.3770613,7.8746663 63.1614276,7.90260852 62.9646388,7.83771429 C61.4431681,7.32513603 59.8496769,7.05811169 58.2441065,7.04668571 C54.4386312,7.04668571 52.158251,9.66651429 52.158251,14.0498286 C52.158251,18.4331429 54.4241065,20.7554286 58.5346008,20.7554286 C60.0962455,20.7861886 61.6448837,20.4662673 63.0663118,19.8192571 C63.2673095,19.7136277 63.5079751,19.7160106 63.7068387,19.8255993 C63.9057023,19.935188 64.0361386,20.1373099 64.0539924,20.3635429 L64.5841445,25.8717143 C64.6041713,26.1911765 64.4123828,26.4860239 64.1120913,26.5974286 C61.92441,27.3234029 59.6342058,27.6932572 57.3290494,27.6932572 L57.3290494,27.6932572 Z M58.5854373,1.79977143 C48.8974525,1.79977143 45.4405703,8.4328 45.4405703,14.6449143 C45.4405703,22.1778286 49.66,26.3289143 57.3290494,26.3289143 C59.2974759,26.3259197 61.25486,26.0349679 63.1389354,25.4653143 L62.7540304,21.4376 C61.3906111,21.9235261 59.9530811,22.1690812 58.5055513,22.1633143 C53.5889354,22.1633143 50.7638783,19.2169143 50.7638783,14.0861143 C50.7638783,8.95531429 53.7414449,5.69685714 58.2441065,5.69685714 C59.7174636,5.70246694 61.1832675,5.90753214 62.6015209,6.30645714 L62.9936882,2.26422857 C61.544443,1.95657792 60.0670227,1.80091564 58.5854373,1.79977143 L58.5854373,1.79977143 Z" id="Shape"></path>
                <polygon id="Path" points="69.6096958 26.6264571 69.6096958 1.50222857 75.8480608 1.50222857 75.8480608 21.1182857 84.0182129 21.1182857 84.0182129 26.6264571"></polygon>
                <path d="M84.0182129,27.3086286 L69.6096958,27.3086286 C69.2326722,27.3086286 68.9270342,27.00321 68.9270342,26.6264571 L68.9270342,1.50222857 C68.9270342,1.12547569 69.2326722,0.820057143 69.6096958,0.820057143 L75.8480608,0.820057143 C76.2250844,0.820057143 76.5307224,1.12547569 76.5307224,1.50222857 L76.5307224,20.4361143 L84.0182129,20.4361143 C84.3952365,20.4361143 84.7008745,20.7415328 84.7008745,21.1182857 L84.7008745,26.6264571 C84.7008745,26.8073803 84.6289515,26.9808932 84.5009276,27.1088252 C84.3729037,27.2367571 84.199266,27.3086286 84.0182129,27.3086286 L84.0182129,27.3086286 Z M70.2923574,25.9442857 L83.3646008,25.9442857 L83.3646008,21.7714286 L75.8480608,21.7714286 C75.4710372,21.7714286 75.1653992,21.46601 75.1653992,21.0892571 L75.1653992,2.17714286 L70.2923574,2.17714286 L70.2923574,25.9442857 Z" id="Shape"></path>
                <path d="M118.587034,26.6264571 L118.587034,21.7714286 L127.919163,9.11497143 C128.550989,8.29491429 128.979468,7.66354286 129.516882,7.03942857 C128.594563,7.08297143 127.098517,7.08297143 125.115894,7.08297143 L118.877529,7.08297143 L118.877529,1.50222857 L137.302129,1.50222857 L137.302129,6.58222857 L127.534259,19.4854286 C127.149354,20.0152 126.808023,20.5449714 126.466692,20.9368571 C127.004106,20.8425143 128.979468,20.8425143 131.397833,20.8425143 L137.541787,20.8425143 L137.541787,26.6482286 L118.587034,26.6264571 Z" id="Path"></path>
                <path d="M137.541787,27.3086287 L118.587034,27.3086287 C118.210011,27.3086287 117.904373,27.00321 117.904373,26.6264571 L117.904373,21.7714286 C117.906189,21.6259294 117.951734,21.4843358 118.035095,21.3650286 L127.367224,8.70857143 L127.955475,7.93205714 L128.086198,7.75788571 L118.877529,7.75788571 C118.500505,7.75788571 118.194867,7.45246716 118.194867,7.07571429 L118.194867,1.50222857 C118.194867,1.12547569 118.500505,0.820057143 118.877529,0.820057143 L137.302129,0.820057143 C137.66989,0.841518385 137.963314,1.134732 137.984791,1.50222857 L137.984791,6.58222857 C137.982316,6.73098855 137.934147,6.87539404 137.846806,6.99588571 L128.078935,19.8845714 L127.882852,20.1603429 C128.732548,20.1603429 129.894525,20.1603429 131.397833,20.1603429 L137.541787,20.1603429 C137.918811,20.1603429 138.224449,20.4657614 138.224449,20.8425143 L138.224449,26.6482286 C138.212682,27.0164528 137.910464,27.3086287 137.541787,27.3086287 Z M119.269696,25.9442857 L136.859125,25.9442857 L136.859125,21.5101714 L131.397833,21.5101714 C129.168289,21.5101714 127.040418,21.5101714 126.590152,21.5972571 C126.303052,21.6411045 126.017417,21.5098068 125.863916,21.2634286 C125.732802,21.0059252 125.767031,20.6952331 125.951065,20.4724 C126.183856,20.1910862 126.402015,19.8979943 126.604677,19.5942857 C126.720875,19.4273714 126.844335,19.2459429 126.975057,19.0717714 L136.612205,6.35 L136.612205,2.17714286 L119.56019,2.17714286 L119.56019,6.41531429 L125.115894,6.41531429 C127.047681,6.41531429 128.580038,6.41531429 129.473308,6.37177143 C129.744722,6.35778048 129.998587,6.50599984 130.119658,6.74914286 C130.237457,6.9879489 130.200232,7.27408574 130.025247,7.47485714 C129.691179,7.874 129.393422,8.2804 129.044829,8.74485714 L128.456578,9.52862857 L119.262433,21.9964 L119.269696,25.9442857 Z" id="Shape"></path>
                <rect id="Rectangle" x="143.925399" y="1.50222857" width="6.23836502" height="25.1242286"></rect>
                <path d="M150.156502,27.3086286 L143.925399,27.3086286 C143.548376,27.3086286 143.242738,27.00321 143.242738,26.6264571 L143.242738,1.50222857 C143.242738,1.12547569 143.548376,0.820057143 143.925399,0.820057143 L150.156502,0.820057143 C150.533525,0.820057143 150.839163,1.12547569 150.839163,1.50222857 L150.839163,26.6264571 C150.839163,27.00321 150.533525,27.3086286 150.156502,27.3086286 L150.156502,27.3086286 Z M144.608061,25.9442857 L149.47384,25.9442857 L149.47384,2.17714286 L144.608061,2.17714286 L144.608061,25.9442857 Z" id="Shape"></path>
                <path d="M168.188935,27.0618857 C159.975209,27.0618857 155.625057,21.9818857 155.625057,14.3546286 C155.625057,6.13954286 162.001407,1.0668 169.111255,1.0668 C176.221103,1.0668 181.776806,5.12354286 181.776806,13.7885714 C181.776806,22.0326857 175.494867,27.0618857 168.188935,27.0618857 Z M168.675513,6.52417143 C165.291255,6.52417143 162.291901,9.08594286 162.291901,13.97 C162.291901,18.3242857 164.274525,21.5537143 168.530266,21.5537143 C172.059772,21.5537143 175.1027,19.2314286 175.1027,14.1151429 C175.1027,9.13674286 172.495513,6.53142857 168.675513,6.53142857 L168.675513,6.52417143 Z" id="Shape"></path>
                <path d="M168.188935,27.7440571 C159.895323,27.7440571 154.942395,22.7366286 154.942395,14.3546286 C154.942395,5.2832 162.241065,0.384628571 169.111255,0.384628571 C177.346768,0.384628571 182.459468,5.51542857 182.459468,13.7740571 C182.459468,21.8657714 176.475285,27.7440571 168.188935,27.7440571 Z M169.111255,1.74897143 C165.809149,1.71048228 162.61404,2.91815423 160.16403,5.1308 C157.61833,7.51327021 156.214714,10.8705485 156.307719,14.3546286 C156.307719,21.9964 160.665133,26.3797143 168.188935,26.3797143 C174.601597,26.3797143 181.094144,22.0254286 181.094144,13.7740571 C181.094144,6.2484 176.61327,1.74897143 169.111255,1.74897143 Z M168.530266,22.2358857 C164.172852,22.2358857 161.60924,19.1443429 161.60924,13.97 C161.51497,11.7691815 162.268731,9.61601153 163.715323,7.95382857 C165.000043,6.5871543 166.799199,5.82115369 168.675513,5.842 C173.032928,5.842 175.785361,9.01337143 175.785361,14.1151429 C175.785361,16.6841714 175.059125,18.796 173.606654,20.2329143 C172.251699,21.553684 170.422694,22.2753476 168.530266,22.2358857 L168.530266,22.2358857 Z M168.675513,7.20634286 C165.835932,7.20634286 162.974563,9.2964 162.974563,13.97 C162.881035,15.7498587 163.36776,17.5120149 164.361673,18.9919429 C165.358881,20.2634118 166.916419,20.965699 168.530266,20.8715429 C172.887681,20.8715429 174.420038,17.3808571 174.420038,14.1151429 C174.420038,9.72457143 172.328479,7.20634286 168.675513,7.20634286 Z" id="Shape"></path>
                <path d="M100.757947,27.0618857 C93.1179468,27.0618857 89.4940304,23.4841143 89.4940304,17.7872571 L89.4940304,1.50222857 L95.7251331,1.50222857 L95.7251331,16.3793714 C95.7251331,20.2474286 97.5625095,21.8875429 101.092015,21.8875429 C104.912015,21.8875429 106.415323,19.7612 106.415323,16.1398857 L106.415323,1.50222857 L112.56654,1.50222857 L112.56654,16.9164 C112.56654,22.4971429 109.02251,27.0618857 100.757947,27.0618857 Z" id="Path"></path>
                <path d="M100.757947,27.7440571 C93.0525856,27.7440571 88.8113688,24.2025714 88.8113688,17.7872571 L88.8113688,1.50222857 C88.8113688,1.12547569 89.1170068,0.820057143 89.4940304,0.820057143 L95.7251331,0.820057143 C96.1021567,0.820057143 96.4077947,1.12547569 96.4077947,1.50222857 L96.4077947,16.3793714 C96.4077947,19.7684571 97.8094297,21.2053714 101.092015,21.2053714 C104.374601,21.2053714 105.732662,19.6450857 105.732662,16.1253714 L105.732662,1.50222857 C105.732662,1.12547569 106.0383,0.820057143 106.415323,0.820057143 L112.56654,0.820057143 C112.943564,0.820057143 113.249202,1.12547569 113.249202,1.50222857 L113.249202,16.9164 C113.234677,23.6945714 108.572243,27.7440571 100.757947,27.7440571 Z M90.176692,2.17714286 L90.176692,17.78 C90.176692,23.3970286 93.8078707,26.3724571 100.757947,26.3724571 C110.787262,26.3724571 111.869354,19.7539429 111.869354,16.9381714 L111.869354,2.17714286 L107.097985,2.17714286 L107.097985,16.1398857 C107.097985,20.4070857 105.079049,22.5697143 101.092015,22.5697143 C97.104981,22.5697143 95.0424715,20.4869143 95.0424715,16.3793714 L95.0424715,2.17714286 L90.176692,2.17714286 Z" id="Shape"></path>
            </g>
        </g>
    </g>
</svg>