<?xml version="1.0"?>
<svg xmlns="http://www.w3.org/2000/svg" xmlns:xlink="http://www.w3.org/1999/xlink" xmlns:svgjs="http://svgjs.com/svgjs" version="1.1" width="512" height="512" x="0" y="0" viewBox="0 0 470 470" style="enable-background:new 0 0 512 512" xml:space="preserve" class=""><g><g xmlns="http://www.w3.org/2000/svg"><g><g><path d="m434.331 304.847c9.106-24.096 13.718-49.398 13.718-75.335 0-56.923-22.157-110.428-62.391-150.661-40.232-40.231-93.737-62.388-150.658-62.388-25.806 0-50.898 4.546-74.702 13.524-17.453-19.147-41.832-29.987-67.982-29.987-50.903 0-92.316 41.414-92.316 92.317 0 27.214 12.157 53.053 32.858 70.529-7.24 21.684-10.907 44.076-10.907 66.666 0 56.921 22.156 110.426 62.387 150.658 40.231 40.233 93.738 62.391 150.662 62.391 22.852 0 45.588-3.768 67.703-11.209 17.193 24.027 45.214 38.648 74.981 38.648 50.903 0 92.316-41.414 92.316-92.317 0-28.659-13.192-55.321-35.669-72.836zm-56.647 145.153c-25.491 0-49.353-13.707-62.272-35.772-1.839-3.139-5.167-4.948-8.633-4.948-1.177 0-2.37.209-3.526.645-22.229 8.385-45.192 12.636-68.252 12.636-51.582 0-100.065-20.077-136.52-56.533-36.454-36.455-56.529-84.937-56.529-136.516 0-22.627 4.073-45.051 12.107-66.649 1.576-4.24.111-9.01-3.574-11.633-19.089-13.588-30.485-35.612-30.485-58.913 0-39.876 32.441-72.317 72.316-72.317 22.463 0 43.263 10.228 57.066 28.062 2.769 3.575 7.59 4.849 11.762 3.107 23.368-9.758 48.217-14.705 73.855-14.705 51.579 0 100.061 20.076 136.517 56.531 36.455 36.455 56.532 84.938 56.532 136.518 0 25.949-5.091 51.195-15.132 75.038-1.882 4.468-.287 9.643 3.782 12.277 20.853 13.494 33.302 36.243 33.302 60.855 0 39.876-32.441 72.317-72.316 72.317z" fill="#ffffff" data-original="#000000" style="" class=""/><path d="m249.804 198.135c-69.187-13.447-73.667-34.583-57.021-49.321 16.666-14.726 66.164-21.361 80.076 4.486 13.463 24.973 23.077 35.226 41.641 30.74 17.738-4.277 20.291-28.822 12.82-43.554-6.026-11.897-33.315-42.284-87.131-42.284-53.807 0-110.184 19.861-110.184 69.187s51.254 71.105 100.58 78.158c49.315 7.042 60.848 28.189 54.461 43.57-6.4 15.36-27.559 30.087-59.584 26.893-32.037-3.194-46.818-30.022-51.256-43.57-4.266-13.012-19.207-14.728-26.26-14.095-7.053.654-29.475 9.636-19.229 41.008 10.257 31.394 43.58 56.378 110.195 56.378s105.693-41.008 105.695-80.075c0-39.085-25.606-64.059-94.803-77.521z" fill="#ffffff" data-original="#000000" style="" class=""/></g></g></g><g xmlns="http://www.w3.org/2000/svg"/><g xmlns="http://www.w3.org/2000/svg"/><g xmlns="http://www.w3.org/2000/svg"/><g xmlns="http://www.w3.org/2000/svg"/><g xmlns="http://www.w3.org/2000/svg"/><g xmlns="http://www.w3.org/2000/svg"/><g xmlns="http://www.w3.org/2000/svg"/><g xmlns="http://www.w3.org/2000/svg"/><g xmlns="http://www.w3.org/2000/svg"/><g xmlns="http://www.w3.org/2000/svg"/><g xmlns="http://www.w3.org/2000/svg"/><g xmlns="http://www.w3.org/2000/svg"/><g xmlns="http://www.w3.org/2000/svg"/><g xmlns="http://www.w3.org/2000/svg"/><g xmlns="http://www.w3.org/2000/svg"/></g></svg>
