<?xml version="1.0"?>
<svg xmlns="http://www.w3.org/2000/svg" xmlns:xlink="http://www.w3.org/1999/xlink" xmlns:svgjs="http://svgjs.com/svgjs" version="1.1" width="512" height="512" x="0" y="0" viewBox="0 0 512.002 512.002" style="enable-background:new 0 0 512 512" xml:space="preserve" class=""><g><path xmlns="http://www.w3.org/2000/svg" d="m466.296 229.196c-22.647 0-41.49 16.561-45.079 38.206h-95.797c-2.543-28.559-19.438-53.049-43.42-66.169l11.961-27.569c3.545.885 7.25 1.362 11.065 1.362 17.169 0 32.734-9.489 40.622-24.765 1.9-3.68.457-8.205-3.223-10.105s-8.205-.458-10.105 3.223c-5.302 10.268-15.761 16.647-27.294 16.647-16.932 0-30.706-13.775-30.706-30.706s13.774-30.705 30.706-30.705c11.533 0 21.992 6.378 27.294 16.646 1.9 3.682 6.426 5.122 10.105 3.223 3.68-1.9 5.123-6.425 3.223-10.105-7.888-15.275-23.453-24.764-40.622-24.764-25.202 0-45.706 20.503-45.706 45.705 0 16.058 8.331 30.198 20.89 38.352l-11.97 27.589c-8.302-2.757-17.164-4.272-26.379-4.272-17.212 0-33.226 5.216-46.557 14.141l-71.378-88.635c10.236-10.644 16.549-25.087 16.549-40.986 0-32.635-26.55-59.185-59.185-59.185s-59.185 26.551-59.185 59.186c0 32.634 26.551 59.185 59.186 59.185 11.346 0 21.951-3.215 30.966-8.773l71.382 88.64c-15.82 15.27-25.689 36.668-25.689 60.34 0 17.772 5.716 35.197 16.157 49.486l-57.662 50.608c-12.376-11.362-28.865-18.311-46.949-18.311-38.32 0-69.496 31.176-69.496 69.496s31.176 69.496 69.496 69.496c38.319 0 69.495-31.176 69.495-69.496 0-14.845-4.694-28.606-12.654-39.909l57.683-50.626c10.772 10.231 24.157 17.54 38.629 20.932 4.034.943 8.067-1.557 9.014-5.59.945-4.033-1.558-8.068-5.59-9.014-30.928-7.25-53.123-34.622-53.123-67.072 0-37.998 30.913-68.911 68.911-68.911s68.911 30.914 68.911 68.911c0 32.77-22.548 59.904-53.123 67.072-4.032.946-6.535 4.981-5.59 9.014.946 4.035 4.983 6.535 9.014 5.59 9.764-2.289 19.027-6.37 27.335-11.916l35.878 44.552c-4.032 5.278-6.434 11.864-6.434 19.003 0 17.296 14.071 31.368 31.367 31.368s31.367-14.071 31.367-31.368c0-17.296-14.071-31.367-31.367-31.367-4.736 0-9.227 1.061-13.256 2.948l-35.857-44.526c14.955-14.391 23.556-33.371 25.32-52.869h95.791c3.59 21.645 22.432 38.206 45.079 38.206 25.202 0 45.706-20.503 45.706-45.706 0-25.204-20.504-45.707-45.706-45.707zm-385.005-109.501c-24.364 0-44.186-19.821-44.186-44.185s19.821-44.185 44.186-44.185c24.363 0 44.185 19.821 44.185 44.185s-19.822 44.185-44.185 44.185zm-11.795 360.982c-30.049 0-54.496-24.447-54.496-54.496s24.447-54.496 54.496-54.496 54.495 24.447 54.495 54.496-24.446 54.496-54.495 54.496zm279.724-88.828c9.024 0 16.367 7.342 16.367 16.367s-7.343 16.368-16.367 16.368-16.367-7.342-16.367-16.368c0-9.025 7.342-16.367 16.367-16.367zm117.076-86.242c-16.931 0-30.705-13.774-30.705-30.706s13.774-30.706 30.705-30.706c16.932 0 30.706 13.775 30.706 30.706s-13.774 30.706-30.706 30.706z" fill="#ffffff" data-original="#000000" style="" class=""/></g></svg>
