<?xml version="1.0"?>
<svg xmlns="http://www.w3.org/2000/svg" xmlns:xlink="http://www.w3.org/1999/xlink" xmlns:svgjs="http://svgjs.com/svgjs" version="1.1" width="512" height="512" x="0" y="0" viewBox="0 0 512.005 512.005" style="enable-background:new 0 0 512 512" xml:space="preserve" class=""><g><g xmlns="http://www.w3.org/2000/svg"><path d="m385.274 281.22c19.185 8.5 31.581 27.55 31.581 48.53v25.366c0 4.142 3.358 7.5 7.5 7.5s7.5-3.358 7.5-7.5v-25.366c0-26.909-15.899-51.341-40.588-62.28l-81.336-34.854c.002-.205.018-.412.018-.616v-32.373c16.751-14.899 27.331-36.593 27.331-60.72l.025-62.665c0-16.666-5.012-32.688-14.494-46.335-9.262-13.331-22.115-23.493-37.169-29.39-2.929-1.146-6.261-.345-8.348 2.008l-11.309 12.757c-6.612 7.313-16.053 11.507-25.9 11.507h-22.254c-23.782 0-43.131 19.346-43.131 43.126v40.546.001s0 0 0 .001v28.443c0 24.139 10.59 45.843 27.356 60.742v32.352c0 .308.023.617.029.925l-80.257 34.887c-25.318 10.655-41.678 35.286-41.678 62.752v24.553c0 4.142 3.358 7.5 7.5 7.5s7.5-3.358 7.5-7.5v-24.553c0-21.414 12.755-40.618 32.577-48.96l39.862-17.327c6.581 15.934 17.288 29.706 31.321 40.154 16.6 12.359 36.337 18.892 57.081 18.892 16.399 0 32.584-4.222 46.803-12.21 2.002-1.125 3.992-2.339 5.914-3.61 3.455-2.285 4.404-6.938 2.119-10.393s-6.938-4.404-10.393-2.119c-1.621 1.072-3.298 2.096-4.987 3.044-11.981 6.73-25.625 10.288-39.457 10.288-33.116 0-62.323-19.843-74.651-50.023l23.204-10.086c6.936 22.063 27.579 37.727 51.46 37.727 24.05 0 44.736-15.795 51.557-38.021l23.247 9.962c-2.336 5.781-5.338 11.278-8.975 16.403-2.397 3.378-1.603 8.06 1.775 10.457 1.317.935 2.833 1.384 4.334 1.384 2.348 0 4.66-1.1 6.123-3.16 4.254-5.994 7.772-12.421 10.528-19.177zm-195.574-142.314v-21.632c3.399-.669 6.696-1.816 9.766-3.413 4.547-2.365 8.635-5.755 11.82-9.805 2.562-3.255 1.999-7.971-1.256-10.532-3.256-2.563-7.971-2-10.532 1.256-1.878 2.387-4.283 4.383-6.954 5.772-.964.501-1.917.9-2.844 1.22v-31.857c0-15.509 12.62-28.126 28.131-28.126h22.254c14.08 0 27.576-5.995 37.076-16.502l7.747-8.739c22.881 11.033 37.397 33.936 37.397 59.693v15.323c-9.407 3.482-19.309 5.266-29.489 5.266-22.17 0-43.168-8.475-59.125-23.864-2.981-2.875-7.729-2.789-10.605.192-2.875 2.982-2.79 7.729.192 10.605 18.768 18.1 43.464 28.067 69.538 28.067 10.09 0 19.958-1.476 29.445-4.397.025.45.019 31.473.019 31.473 0 36.547-29.738 66.28-66.29 66.28s-66.29-29.733-66.29-66.28zm66.302 132.034c-19.651 0-36.267-14.681-38.652-34.158-.195-1.58-.294-3.189-.294-4.783v-21.763c11.569 6.339 24.837 9.95 38.934 9.95 14.107 0 27.384-3.617 38.959-9.965v21.779c0 1.514-.09 3.044-.271 4.567-2.276 19.596-18.902 34.373-38.676 34.373z" fill="#ffffff" data-original="#000000" style="" class=""/><path d="m318.11 420.617-36.593-5.317-16.365-33.154c-1.72-3.484-5.201-5.648-9.087-5.648s-7.367 2.165-9.086 5.648l-16.365 33.155-36.594 5.317c-3.845.559-6.98 3.202-8.18 6.898-1.2 3.695-.217 7.675 2.565 10.386l26.479 25.807-6.251 36.44c-.656 3.829.888 7.626 4.031 9.91 3.143 2.283 7.231 2.58 10.671.772l32.73-17.206 32.731 17.206c1.495.786 3.113 1.174 4.723 1.174 2.092 0 4.171-.656 5.947-1.946 3.143-2.284 4.688-6.081 4.031-9.911l-6.251-36.439 26.478-25.807c2.783-2.711 3.766-6.691 2.566-10.386-1.199-3.696-4.334-6.339-8.18-6.899zm-66.408-31.832.005.011c-.002-.004-.004-.008-.005-.011-.001 0-.001 0 0 0zm33.243 65.968c-2.389 2.329-3.478 5.682-2.914 8.969l5.017 29.243-26.268-13.808c-2.954-1.552-6.478-1.551-9.43 0l-26.267 13.808 5.017-29.243c.564-3.288-.525-6.641-2.915-8.97l-21.248-20.709 29.364-4.266c3.303-.48 6.156-2.553 7.63-5.543l13.134-26.608 13.132 26.605c1.476 2.993 4.329 5.066 7.631 5.545l29.365 4.267z" fill="#ffffff" data-original="#000000" style="" class=""/><path d="m149.699 420.617-36.593-5.317-16.365-33.154c-1.72-3.484-5.201-5.648-9.087-5.648s-7.367 2.165-9.086 5.648l-16.365 33.155-36.594 5.317c-3.845.559-6.98 3.202-8.18 6.898-1.2 3.695-.217 7.675 2.565 10.386l26.479 25.807-6.251 36.44c-.656 3.829.888 7.626 4.031 9.91 3.143 2.283 7.231 2.58 10.671.772l32.73-17.206 32.731 17.206c1.495.786 3.113 1.174 4.723 1.174 2.092 0 4.171-.656 5.947-1.946 3.143-2.284 4.688-6.081 4.031-9.911l-6.251-36.439 26.478-25.807c2.783-2.711 3.766-6.691 2.566-10.386-1.199-3.696-4.334-6.339-8.18-6.899zm-66.409-31.832.005.011c-.001-.004-.003-.008-.005-.011zm33.244 65.968c-2.389 2.329-3.478 5.682-2.914 8.969l5.017 29.243-26.268-13.808c-2.953-1.551-6.477-1.551-9.43 0l-26.267 13.808 5.017-29.243c.564-3.288-.525-6.641-2.915-8.97l-21.248-20.709 29.364-4.266c3.303-.48 6.156-2.553 7.63-5.543l13.134-26.608 13.132 26.605c1.476 2.993 4.329 5.066 7.631 5.545l29.365 4.267z" fill="#ffffff" data-original="#000000" style="" class=""/><path d="m494.577 427.515c-1.2-3.696-4.335-6.339-8.181-6.898l-36.593-5.317-16.365-33.154c-1.72-3.484-5.201-5.648-9.087-5.648s-7.367 2.165-9.086 5.648l-16.365 33.155-36.594 5.317c-3.845.559-6.98 3.202-8.18 6.898-1.2 3.695-.217 7.675 2.565 10.386l26.479 25.807-6.251 36.44c-.656 3.829.888 7.626 4.031 9.91 3.143 2.283 7.231 2.58 10.671.772l32.73-17.206 32.731 17.206c1.495.786 3.113 1.174 4.723 1.174 2.092 0 4.171-.656 5.947-1.946 3.143-2.284 4.688-6.081 4.031-9.911l-6.251-36.439 26.478-25.807c2.783-2.712 3.767-6.691 2.567-10.387zm-74.59-38.73.005.011c-.002-.004-.004-.008-.005-.011-.001 0-.001 0 0 0zm33.243 65.968c-2.389 2.329-3.478 5.682-2.914 8.969l5.017 29.243-26.268-13.808c-2.953-1.551-6.477-1.551-9.43 0l-26.267 13.808 5.017-29.243c.564-3.288-.525-6.641-2.915-8.97l-21.248-20.709 29.364-4.266c3.303-.48 6.156-2.553 7.63-5.543l13.134-26.608 13.132 26.605c1.476 2.993 4.329 5.066 7.631 5.545l29.365 4.267z" fill="#ffffff" data-original="#000000" style="" class=""/></g></g></svg>
